<?xml version="1.0" encoding="UTF-8" standalone="no"?>
<!DOCTYPE svg PUBLIC "-//W3C//DTD SVG 1.0//EN"	"http://www.w3.org/TR/2001/REC-SVG-20010904/DTD/svg10.dtd">
<svg
   xmlns:svg="http://www.w3.org/2000/svg"
   xmlns="http://www.w3.org/2000/svg"
   version="1.0"
   width="150"
   height="150"
   id="svg4704">
  <defs
     id="defs4706" />
  <g
     transform="translate(-245.33482,-1368.7907)"
     id="layer1">
    <path
       d="M 263.61607,1368.7907 C 263.61607,1393.7675 257.59747,1418.8533 245.80357,1443.7907 L 261.74107,1443.7907 C 265.45267,1437.0515 268.95202,1429.8164 272.05357,1422.2282 C 276.78997,1410.6399 279.95212,1398.7222 281.42857,1386.6032 L 359.24107,1386.6032 C 360.71752,1398.7222 363.87952,1410.6399 368.61607,1422.2282 C 371.71762,1429.8164 375.21697,1437.0515 378.92857,1443.7907 L 394.86607,1443.7907 C 383.07217,1418.8533 377.05357,1393.7675 377.05357,1368.7907 L 358.30357,1368.7907 L 282.36607,1368.7907 L 263.61607,1368.7907 z M 245.33482,1499.1032 L 245.33482,1518.7907 L 395.33482,1518.7907 L 395.33482,1499.1032 L 245.33482,1499.1032 z"
       id="path5077"
       style="font-size:14px;fill:#000000;fill-opacity:1;stroke-opacity:1;font-family:Arial" />
  </g>
</svg>
