<?xml version="1.0" encoding="UTF-8" standalone="no"?>
<!DOCTYPE svg PUBLIC "-//W3C//DTD SVG 1.0//EN"	"http://www.w3.org/TR/2001/REC-SVG-20010904/DTD/svg10.dtd">
<svg
   xmlns:svg="http://www.w3.org/2000/svg"
   xmlns="http://www.w3.org/2000/svg"
   version="1.0"
   width="198.75"
   height="150"
   id="svg4744">
  <defs
     id="defs4746" />
  <g
     transform="translate(-453.90625,-1800.2193)"
     id="layer1">
    <path
       d="M 453.90625,1800.2193 L 453.90625,1815.2193 L 453.90625,1819.9068 L 453.90625,1836.7818 L 472.65625,1836.7818 L 472.65625,1819.9068 L 472.65625,1800.2193 L 453.90625,1800.2193 z M 487.65625,1800.2193 L 487.65625,1815.2193 L 487.65625,1819.9068 L 487.65625,1836.7818 L 506.40625,1836.7818 L 506.40625,1819.9068 L 625,1819.9068 L 581.40625,1930.5318 L 506.40625,1930.5318 L 506.40625,1913.6568 L 487.65625,1913.6568 L 487.65625,1930.5318 L 487.65625,1935.2193 L 487.65625,1950.2193 L 592.65625,1950.2193 L 594.0625,1950.2193 L 652.65625,1800.2193 L 637.65625,1800.2193 L 632.5,1800.2193 L 487.65625,1800.2193 z M 453.90625,1913.6568 L 453.90625,1930.5318 L 453.90625,1935.2193 L 453.90625,1950.2193 L 472.65625,1950.2193 L 472.65625,1930.5318 L 472.65625,1913.6568 L 453.90625,1913.6568 z"
       id="path2642"
       style="font-size:14px;fill:#000000;fill-opacity:1;stroke-opacity:1;font-family:Arial" />
  </g>
</svg>
