<?xml version="1.0" encoding="UTF-8" standalone="no"?>
<!-- Created with Inkscape (http://www.inkscape.org/) -->
<svg
   xmlns:svg="http://www.w3.org/2000/svg"
   xmlns="http://www.w3.org/2000/svg"
   version="1.0"
   width="120"
   height="150"
   id="svg2803">
  <defs
     id="defs2805" />
  <g
     transform="translate(-276.07146,-2784.9514)"
     id="layer1">
    <path
       d="M 297.16521,2784.9514 C 291.80541,2794.2964 287.39016,2803.6594 284.04021,2813.0764 C 278.77656,2827.9789 276.07146,2843.682 276.07146,2859.9514 C 276.07146,2878.4085 279.81171,2896.1623 286.85271,2913.3889 C 289.99761,2921.083 293.40606,2928.156 297.16521,2934.9514 L 312.63396,2934.9514 L 396.07146,2934.9514 L 396.07146,2784.9514 L 375.91521,2784.9514 L 375.91521,2917.1389 L 305.60271,2917.1389 C 298.68171,2898.0286 294.82146,2879.0848 294.82146,2859.9514 C 294.82146,2847.0316 296.56956,2834.2972 299.50896,2821.5139 C 301.20651,2814.2388 303.47931,2807.2824 306.07146,2800.4202 L 306.07146,2806.5139 L 324.82146,2806.5139 L 324.82146,2784.9514 L 312.63396,2784.9514 L 306.07146,2784.9514 L 297.16521,2784.9514 z"
       id="path2419"
       style="font-size:14px;fill:#000000;fill-opacity:1;stroke-opacity:1;font-family:Arial" />
  </g>
</svg>
