<?xml version="1.0" encoding="UTF-8" standalone="no"?>
<!-- Created with Inkscape (http://www.inkscape.org/) -->
<svg
   xmlns:svg="http://www.w3.org/2000/svg"
   xmlns="http://www.w3.org/2000/svg"
   version="1.0"
   width="138.28131"
   height="150"
   id="svg2713">
  <defs
     id="defs2715" />
  <g
     transform="translate(-196.60711,-797.36218)"
     id="layer1">
    <path
       d="M 255.66967,797.36218 L 255.66967,842.36218 L 196.60711,842.36218 L 196.60711,947.36218 L 255.66967,947.36218 L 275.82592,947.36218 L 334.88842,947.36218 L 334.88842,927.67468 L 275.82592,927.67468 L 275.82592,859.70588 C 280.81507,859.36348 285.60742,858.87508 289.88842,857.83088 C 296.89507,856.12198 302.74477,853.17758 307.70092,849.86218 C 312.65692,846.54668 317.59342,842.04478 321.76342,836.26838 C 325.93327,830.49208 328.94107,823.52428 331.60717,814.70588 C 333.20602,809.41778 334.18507,803.61818 334.88842,797.36218 L 314.26342,797.36218 C 313.67512,803.06638 312.95962,808.26548 311.45092,812.83088 C 308.81917,820.79488 304.91767,827.33288 300.20092,832.04968 C 296.85127,835.39928 292.24672,837.70388 286.60717,839.54968 C 283.58707,840.53818 279.97582,840.95378 275.82592,841.42468 L 275.82592,797.36218 L 255.66967,797.36218 z M 214.41967,860.17468 L 255.66967,860.17468 L 255.66967,927.67468 L 214.41967,927.67468 L 214.41967,860.17468 z"
       id="path2830"
       style="font-size:14px;fill:#000000;fill-opacity:1;stroke-opacity:1;font-family:Arial" />
  </g>
</svg>
