<?xml version="1.0" encoding="UTF-8" standalone="no"?>
<!-- Created with Inkscape (http://www.inkscape.org/) -->
<svg
   xmlns:svg="http://www.w3.org/2000/svg"
   xmlns="http://www.w3.org/2000/svg"
   version="1.0"
   width="130.3125"
   height="150"
   id="svg2753">
  <defs
     id="defs2755" />
  <g
     transform="translate(-369.46432,-1797.1166)"
     id="layer1">
    <path
       d="M 480.08932,1797.1166 C 480.08932,1797.1166 474.72007,1824.9746 469.30807,1840.7103 C 466.58032,1848.6416 462.77482,1855.2123 458.05807,1859.9291 C 454.70842,1863.2787 450.10387,1865.5833 444.46432,1867.4291 C 438.82462,1869.2748 431.40772,1870.2416 421.49557,1870.2416 L 369.46432,1870.2416 L 369.46432,1888.0541 L 423.83932,1888.0541 C 432.93112,1888.0541 440.73877,1887.4193 447.74557,1885.7103 C 452.06332,1884.6572 455.96377,1882.8119 459.46432,1881.0228 L 447.74557,1929.3041 L 443.52682,1929.3041 L 369.46432,1929.3041 L 369.46432,1947.1166 L 443.52682,1947.1166 L 463.21432,1947.1166 L 499.77682,1797.1166 L 480.08932,1797.1166 z"
       id="path4014"
       style="font-size:14px;fill:#000000;fill-opacity:1;stroke-opacity:1;font-family:Arial" />
  </g>
</svg>
