<?xml version="1.0" encoding="UTF-8" standalone="no"?>
<!-- Created with Inkscape (http://www.inkscape.org/) -->
<svg
   xmlns:svg="http://www.w3.org/2000/svg"
   xmlns="http://www.w3.org/2000/svg"
   version="1.0"
   width="156.5625"
   height="150"
   id="svg2783">
  <defs
     id="defs2785" />
  <g
     transform="translate(-251.60717,-2442.3398)"
     id="layer1">
    <path
       d="M 273.16967,2442.3398 C 267.73967,2451.8245 262.96877,2461.3958 259.57592,2470.9336 C 254.36777,2485.6787 251.60717,2501.2421 251.60717,2517.3398 C 251.60717,2535.602 255.42167,2553.2638 262.38842,2570.3086 C 265.31897,2577.4786 268.28237,2584.0609 271.76342,2590.4648 L 272.70092,2592.3398 L 292.38842,2592.3398 L 331.29467,2483.5898 C 334.43237,2474.8585 337.14887,2466.3859 339.26342,2458.7461 C 341.58272,2466.9316 344.16257,2475.4042 347.23217,2483.5898 L 387.54467,2592.3398 L 408.16967,2592.3398 L 349.10717,2442.3398 L 328.95092,2442.3398 L 279.26342,2570.3086 C 273.31097,2552.678 270.35717,2534.9903 270.35717,2517.3398 C 270.35717,2504.5564 272.13617,2492.0194 275.04467,2479.3711 C 277.41197,2469.2255 280.29377,2459.1739 284.41967,2449.8398 C 285.23132,2447.9876 286.81022,2444.9366 288.16967,2442.3398 L 273.16967,2442.3398 z"
       id="path4143"
       style="font-size:14px;fill:#000000;fill-opacity:1;stroke-opacity:1;font-family:Arial" />
  </g>
</svg>
