<?xml version="1.0" encoding="UTF-8" standalone="no"?>
<!-- Created with Inkscape (http://www.inkscape.org/) -->
<svg
   xmlns:svg="http://www.w3.org/2000/svg"
   xmlns="http://www.w3.org/2000/svg"
   version="1.0"
   width="165"
   height="150"
   id="svg2793">
  <defs
     id="defs2795" />
  <g
     transform="translate(-327.85717,-2797.9314)"
     id="layer1">
    <path
       d="M 378.95092,2797.9314 C 378.95092,2797.9314 327.85717,2931.5251 327.85717,2931.5251 C 327.85717,2931.5251 341.45092,2947.9314 341.45092,2947.9314 L 396.29467,2947.9314 L 402.85717,2947.9314 L 417.85717,2947.9314 L 424.41967,2947.9314 L 479.26342,2947.9314 C 479.26342,2947.9314 492.85717,2931.5251 492.85717,2931.5251 C 492.85717,2931.5251 441.76342,2797.9314 441.76342,2797.9314 L 430.51342,2797.9314 L 424.41967,2797.9314 L 421.60717,2797.9314 L 417.85717,2797.9314 L 402.85717,2797.9314 L 399.10717,2797.9314 L 396.29467,2797.9314 L 390.20092,2797.9314 L 378.95092,2797.9314 z M 392.07592,2815.7439 L 396.29467,2815.7439 L 402.85717,2815.7439 L 417.85717,2815.7439 L 424.41967,2815.7439 L 428.63842,2815.7439 L 472.23217,2930.1189 L 424.41967,2930.1189 L 417.85717,2930.1189 L 402.85717,2930.1189 L 396.29467,2930.1189 L 348.48217,2930.1189 L 392.07592,2815.7439 z"
       id="path2408"
       style="font-size:14px;fill:#000000;fill-opacity:1;stroke-opacity:1;font-family:Arial" />
  </g>
</svg>
